Coordinates
version=1
nRows=33
nColumns=24
inDegrees=yes

Units are S.I. units (second, meters, Newtons, ...)
If the header above contains a line with 'inDegrees', this indicates whether rotational values are in degrees (yes) or radians (no).

endheader
time	pelvis_tilt	pelvis_list	pelvis_rotation	pelvis_tx	pelvis_ty	pelvis_tz	hip_flexion_r	hip_adduction_r	hip_rotation_r	knee_angle_r	ankle_angle_r	subtalar_angle_r	mtp_angle_r	hip_flexion_l	hip_adduction_l	hip_rotation_l	knee_angle_l	ankle_angle_l	subtalar_angle_l	mtp_angle_l	lumbar_extension	lumbar_bending	lumbar_rotation
6.100000	10.170679	1.833453	-181.634750	0.205161	0.853327	-1.211217	15.241208	-9.590960	-34.592865	-11.554013	0.950333	13.291393	0.000000	14.846805	-15.388369	-34.917724	-12.458523	2.153287	15.369987	0.000000	4.343985	2.983512	1.642484
6.105000	10.166432	1.827073	-181.633678	0.205287	0.853315	-1.211232	15.234350	-9.592058	-34.601700	-11.527499	0.949856	13.300284	0.000000	14.866580	-15.391682	-34.913308	-12.492405	2.161988	15.357516	0.000000	4.320670	2.970546	1.651554
6.110000	10.151367	1.832058	-181.618826	0.205399	0.853295	-1.211270	15.202633	-9.579857	-34.637892	-11.486623	0.930105	13.326148	0.000000	14.881831	-15.406041	-34.870647	-12.534510	2.203469	15.338259	0.000000	4.281580	2.980429	1.606661
6.115000	10.151046	1.827411	-181.622507	0.205527	0.853242	-1.211252	15.206211	-9.583841	-34.638006	-11.477997	0.929700	13.328826	0.000000	14.896442	-15.404867	-34.867010	-12.527515	2.205241	15.340638	0.000000	4.260526	2.988404	1.609151
6.120000	10.097289	1.797731	-181.630937	0.205588	0.853308	-1.211154	15.152829	-9.628937	-34.698588	-11.473651	0.905446	13.455799	0.000000	14.836510	-15.357427	-34.819092	-12.515711	2.194268	15.272343	0.000000	4.183270	2.975255	1.628865
6.125000	10.126055	1.796366	-181.652767	0.205736	0.853319	-1.211164	15.195602	-9.625484	-34.711890	-11.468380	0.913264	13.494686	0.000000	14.891218	-15.369112	-34.816167	-12.577793	2.148055	15.202147	0.000000	4.193664	2.978673	1.670450
6.130000	10.118704	1.789836	-181.648311	0.205870	0.853341	-1.211191	15.189983	-9.626709	-34.727426	-11.452677	0.914119	13.498197	0.000000	14.910958	-15.370923	-34.790375	-12.610262	2.142963	15.194462	0.000000	4.165045	2.961691	1.685030
6.135000	10.166911	1.860602	-181.650259	0.206063	0.853229	-1.211436	15.228638	-9.523707	-34.731142	-11.411311	0.905895	13.515439	0.000000	15.008949	-15.481895	-34.718058	-12.660519	2.233023	15.199192	0.000000	4.191230	3.008595	1.666456
6.140000	10.160774	1.841744	-181.626420	0.206200	0.853215	-1.211570	15.209363	-9.526173	-34.728328	-11.369059	0.904711	13.517269	0.000000	15.043334	-15.483185	-34.701924	-12.714950	2.220579	15.203216	0.000000	4.170802	2.959488	1.656489
6.145000	10.045488	1.757222	-181.562668	0.206220	0.853388	-1.211390	15.073541	-9.642044	-34.777763	-11.351378	0.911174	13.506778	0.000000	14.935796	-15.358528	-34.644096	-12.697310	2.209416	15.200563	0.000000	4.029832	2.868228	1.611842
6.150000	10.119833	1.835251	-181.623736	0.206403	0.853290	-1.211615	15.174783	-9.529065	-34.775584	-11.355287	0.920352	13.544395	0.000000	15.037885	-15.486677	-34.662340	-12.756501	2.199123	15.139120	0.000000	4.088329	2.940508	1.681871
6.155000	10.169589	1.885603	-181.683825	0.206584	0.853235	-1.211730	15.256507	-9.461274	-34.763172	-11.372971	0.914663	13.550746	0.000000	15.105829	-15.568636	-34.662517	-12.796219	2.197749	15.092416	0.000000	4.123125	3.000466	1.783475
6.160000	10.168306	1.867741	-181.687602	0.206723	0.853197	-1.211755	15.269184	-9.478297	-34.750953	-11.379799	0.902253	13.549344	0.000000	15.135584	-15.565251	-34.642678	-12.849124	2.188432	15.088482	0.000000	4.094070	2.984121	1.774899
6.165000	10.166347	1.843662	-181.681972	0.206863	0.853164	-1.211821	15.270691	-9.496395	-34.733360	-11.368158	0.889246	13.551854	0.000000	15.162653	-15.552932	-34.618687	-12.889940	2.211705	15.086251	0.000000	4.072110	2.946587	1.758647
6.170000	10.153103	1.835731	-181.665998	0.207019	0.853174	-1.211916	15.267245	-9.501540	-34.732657	-11.371614	0.885735	13.543291	0.000000	15.182794	-15.557488	-34.590635	-12.925209	2.214836	15.081601	0.000000	4.036242	2.917773	1.753705
6.175000	10.134373	1.840253	-181.659101	0.207135	0.853217	-1.211956	15.263147	-9.499527	-34.728058	-11.389593	0.916249	13.523453	0.000000	15.197738	-15.571156	-34.542646	-12.973273	2.246848	15.052639	0.000000	3.992751	2.908547	1.754344
6.180000	10.127163	1.855681	-181.680204	0.207251	0.853228	-1.212001	15.282269	-9.483957	-34.706753	-11.421878	0.939848	13.522458	0.000000	15.210462	-15.599551	-34.516540	-12.999811	2.258369	14.995606	0.000000	3.963341	2.913499	1.804108
6.185000	10.125573	1.868755	-181.688883	0.207413	0.853213	-1.212060	15.307530	-9.473690	-34.696680	-11.458268	0.968456	13.507169	0.000000	15.247130	-15.631513	-34.475685	-13.064524	2.269706	14.928626	0.000000	3.937841	2.922615	1.834821
6.190000	10.120241	1.853652	-181.691510	0.207585	0.853192	-1.212080	15.330656	-9.500443	-34.678509	-11.499736	0.968398	13.502192	0.000000	15.286259	-15.633270	-34.437679	-13.142928	2.293580	14.873771	0.000000	3.903639	2.908713	1.829020
6.195000	10.113429	1.846015	-181.683854	0.207736	0.853166	-1.212161	15.349733	-9.516702	-34.680219	-11.542817	0.988107	13.489681	0.000000	15.324200	-15.641864	-34.376893	-13.209784	2.319081	14.827260	0.000000	3.876213	2.893707	1.820530
6.200000	10.098115	1.842998	-181.682808	0.207882	0.853159	-1.212193	15.366564	-9.530809	-34.659546	-11.592943	0.975956	13.492534	0.000000	15.348430	-15.656841	-34.349050	-13.273399	2.302330	14.820289	0.000000	3.834606	2.890942	1.834476
6.205000	10.138690	1.860095	-181.699846	0.208070	0.853100	-1.212193	15.464022	-9.529830	-34.611550	-11.682300	1.039369	13.488270	0.000000	15.439895	-15.689758	-34.264836	-13.349305	2.324075	14.674438	0.000000	3.854515	2.916417	1.869481
6.210000	10.112957	1.868503	-181.704281	0.208219	0.853126	-1.212190	15.484106	-9.542991	-34.599447	-11.761318	1.033731	13.477843	0.000000	15.455113	-15.712126	-34.231306	-13.416138	2.312602	14.661990	0.000000	3.797950	2.919345	1.909168
6.215000	10.128542	1.867541	-181.684193	0.208468	0.853114	-1.212279	15.553275	-9.550400	-34.501973	-11.845100	1.075088	13.312462	0.000000	15.546892	-15.712744	-33.991695	-13.504122	2.356815	14.335498	0.000000	3.786749	2.909709	1.895901
6.220000	10.091323	1.858818	-181.661952	0.208658	0.853092	-1.212375	15.557701	-9.576762	-34.457510	-11.926967	1.111844	13.289641	0.000000	15.587906	-15.739682	-33.925991	-13.636793	2.415687	14.333755	0.000000	3.704919	2.880933	1.866816
6.225000	10.045369	1.828408	-181.610397	0.208863	0.853070	-1.212356	15.564327	-9.649258	-34.423912	-12.044070	1.166554	13.237909	0.000000	15.634943	-15.729866	-33.843021	-13.780381	2.481956	14.324386	0.000000	3.620164	2.833744	1.836852
6.230000	10.102608	1.876653	-181.630902	0.209191	0.852931	-1.212550	15.705865	-9.599227	-34.276513	-12.165338	1.216717	13.145183	0.000000	15.793785	-15.834034	-33.718948	-13.948836	2.535052	14.230266	0.000000	3.631478	2.865948	1.870093
6.235000	10.133534	1.889715	-181.623806	0.209499	0.852838	-1.212578	15.831490	-9.605502	-34.130046	-12.313625	1.260497	12.827304	0.000000	15.934541	-15.865824	-33.474683	-14.104980	2.553382	13.943387	0.000000	3.614076	2.872733	1.914824
6.240000	10.151830	1.841135	-181.622428	0.209803	0.852776	-1.212570	15.967644	-9.692747	-33.963999	-12.509157	1.325401	12.648718	0.000000	16.062502	-15.833043	-33.274503	-14.297106	2.511387	13.576292	0.000000	3.577856	2.821448	1.922592
6.245000	10.108139	1.855444	-181.603167	0.209967	0.852709	-1.212571	16.008841	-9.730662	-33.897732	-12.702442	1.433848	12.595938	0.000000	16.122436	-15.888724	-33.153190	-14.475894	2.634627	13.562829	0.000000	3.483171	2.853028	1.874712
6.250000	10.135945	1.826494	-181.565686	0.210311	0.852569	-1.212606	16.155777	-9.807173	-33.751523	-12.920045	1.510225	12.472327	0.000000	16.307389	-15.898451	-32.913401	-14.719401	2.746222	13.477790	0.000000	3.450997	2.804857	1.843247
6.255000	10.203276	1.821943	-181.528854	0.210756	0.852373	-1.212682	16.355968	-9.842352	-33.499850	-13.136440	1.556739	12.131885	0.000000	16.567299	-15.936595	-32.615480	-14.997896	2.774849	13.085409	0.000000	3.445646	2.784816	1.806661
6.260000	10.207636	1.852360	-181.517105	0.211169	0.852270	-1.212851	16.498925	-9.819737	-33.144052	-13.361966	1.658644	11.665571	0.000000	16.744900	-16.025383	-32.336347	-15.264301	2.817178	12.799420	0.000000	3.367026	2.776684	1.834598
